<svg xmlns="http://www.w3.org/2000/svg" viewBox="0 0 512 512">
    <defs>
        <radialGradient id="bg" cx="50%" cy="30%" r="70%">
            <stop offset="0%" stop-color="#6dd5fa"/>
            <stop offset="100%" stop-color="#2980b9"/>
        </radialGradient>
        <linearGradient id="circleStroke" x1="0%" y1="0%" x2="100%" y2="100%">
            <stop offset="0%" stop-color="#f9d877"/>
            <stop offset="100%" stop-color="#f39c12"/>
        </linearGradient>
    </defs>
    <circle cx="256" cy="256" r="246" fill="url(#bg)" stroke="url(#circleStroke)" stroke-width="20"/>

    <!-- Hands -->
    <path d="M160 270c-34 0-66-16-84-44-9-15-5-35 9-45 14-11 34-7 44 8 7 11 19 17 31 17h36c21 0 40 9 53 25l11 14-18 25c-21 30-56 48-92 48z"
          fill="#f4c9a1"/>
    <path d="M352 270c34 0 66-16 84-44 9-15 5-35-9-45-14-11-34-7-44 8-7 11-19 17-31 17h-36c-21 0-40 9-53 25l-11 14 18 25c21 30 56 48 92 48z"
          fill="#f4c9a1"/>

    <!-- Sprout -->
    <path d="M246 305c-8 0-15-7-15-15v-50c0-41 34-75 75-75h27c5 0 10 4 10 9 0 37-30 66-66 66h-6v50c0 8-7 15-15 15z"
          fill="#3b5e1a"/>
    <path d="M266 305c8 0 15-7 15-15v-50c0-41-34-75-75-75h-27c-5 0-10 4-10 9 0 37 30 66 66 66h6v50c0 8 7 15 15 15z"
          fill="#3b5e1a"/>
    <ellipse cx="225" cy="197" rx="68" ry="46" fill="#8fd14f"/>
    <ellipse cx="287" cy="197" rx="68" ry="46" fill="#8fd14f"/>

    <!-- Smiling kids -->
    <g fill="#fff">
        <circle cx="140" cy="340" r="30"/>
        <circle cx="210" cy="380" r="30"/>
        <circle cx="300" cy="380" r="30"/>
        <circle cx="370" cy="340" r="30"/>
    </g>
    <g fill="none" stroke="#444" stroke-width="6" stroke-linecap="round">
        <path d="M128 330c4 8 14 14 24 14"/>
        <path d="M198 370c4 8 14 14 24 14"/>
        <path d="M288 370c4 8 14 14 24 14"/>
        <path d="M358 330c4 8 14 14 24 14"/>
    </g>

    <!-- Text -->
    <text x="256" y="120" text-anchor="middle" font-family="Arial, sans-serif"
          font-weight="bold" font-size="36" fill="#ffffff">
        HỆ THỐNG GOODWILL VIỆT NAM
    </text>
    <text x="256" y="445" text-anchor="middle" font-family="Georgia, serif"
          font-size="30" fill="#ffffff" font-style="italic">
        Nâng đỡ những ước mơ khó khăn
    </text>
</svg>
